<svg xmlns="http://www.w3.org/2000/svg" width="32.98" height="32.156" viewBox="0 0 32.98 32.156">
  <path id="Icon-github" d="M11.031,26.454c0,.133-.153.239-.346.239-.219.02-.372-.086-.372-.239,0-.133.153-.239.346-.239C10.858,26.195,11.031,26.3,11.031,26.454Zm-2.068-.3c-.047.133.086.286.286.326a.312.312,0,0,0,.412-.133c.04-.133-.086-.286-.286-.346A.341.341,0,0,0,8.963,26.155Zm2.939-.113c-.193.047-.326.173-.306.326.02.133.193.219.392.173s.326-.173.306-.306S12.095,26.022,11.9,26.042ZM16.277.563A15.944,15.944,0,0,0,0,16.786a16.67,16.67,0,0,0,11.27,15.9c.851.153,1.15-.372,1.15-.8,0-.412-.02-2.686-.02-4.083,0,0-4.654,1-5.632-1.981,0,0-.758-1.935-1.848-2.434,0,0-1.523-1.044.106-1.024A3.51,3.51,0,0,1,7.593,24.08a3.515,3.515,0,0,0,4.847,1.39A3.7,3.7,0,0,1,13.5,23.229c-3.717-.412-7.467-.951-7.467-7.347a5.039,5.039,0,0,1,1.569-3.916,6.282,6.282,0,0,1,.173-4.515c1.39-.432,4.588,1.8,4.588,1.8a15.708,15.708,0,0,1,8.351,0s3.2-2.234,4.588-1.8a6.279,6.279,0,0,1,.173,4.515,5.169,5.169,0,0,1,1.715,3.916c0,6.416-3.916,6.928-7.633,7.347a3.932,3.932,0,0,1,1.13,3.085c0,2.241-.02,5.013-.02,5.559,0,.432.306.957,1.15.8A16.516,16.516,0,0,0,32.98,16.786C32.98,7.564,25.5.563,16.277.563ZM6.463,23.5c-.086.066-.066.219.047.346.106.106.259.153.346.066.086-.066.066-.219-.047-.346C6.7,23.455,6.549,23.409,6.463,23.5Zm-.718-.539c-.047.086.02.193.153.259a.2.2,0,0,0,.286-.047c.047-.086-.02-.193-.153-.259C5.9,22.87,5.791,22.89,5.745,22.957ZM7.9,25.324c-.106.086-.066.286.086.412.153.153.346.173.432.066.086-.086.047-.286-.086-.412C8.185,25.237,7.986,25.217,7.9,25.324Zm-.758-.977c-.106.066-.106.239,0,.392s.286.219.372.153a.3.3,0,0,0,0-.412C7.42,24.326,7.248,24.26,7.141,24.346Z" transform="translate(0 -0.563)"/>
</svg>
