<svg xmlns="http://www.w3.org/2000/svg" width="52.051" height="32.631" viewBox="0 0 52.051 32.631">
  <path id="f-Icon-behance" d="M20.965,19.923c2.874-1.374,4.374-3.452,4.374-6.687,0-6.38-4.753-7.934-10.238-7.934H0V37.327H15.525c5.82,0,11.287-2.792,11.287-9.3,0-4.021-1.907-6.994-5.847-8.106ZM7.04,10.769h6.606c2.539,0,4.826.714,4.826,3.66,0,2.72-1.78,3.813-4.292,3.813H7.04V10.769Zm7.528,21.119H7.04v-8.82h7.672c3.1,0,5.061,1.292,5.061,4.573,0,3.235-2.34,4.247-5.205,4.247Zm32.4-21.751H33.978V6.982H46.963v3.154Zm5.088,15.932c0-6.859-4.012-12.579-11.287-12.579C33.7,13.489,28.9,18.8,28.9,25.76c0,7.22,4.545,12.172,11.865,12.172,5.539,0,9.127-2.494,10.853-7.8H46c-.605,1.979-3.1,3.027-5.033,3.027-3.732,0-5.693-2.187-5.693-5.9H52C52.024,26.881,52.051,26.474,52.051,26.068ZM35.279,23.248A4.977,4.977,0,0,1,40.565,18.3c3.2,0,4.807,1.88,5.079,4.952Z" transform="translate(0 -5.302)" fill="#f0c907"/>
</svg>
