<svg xmlns="http://www.w3.org/2000/svg" width="538.451" height="538.288" viewBox="0 0 538.451 538.288">
  <g id="footer-image" transform="translate(-1179.549 -288)">
    <rect id="Rectangle_11" data-name="Rectangle 11" width="176" height="176" rx="25" transform="translate(1366 288)" fill="#8c8c8c"/>
    <rect id="Rectangle_16" data-name="Rectangle 16" width="176" height="176" rx="25" transform="translate(1366 640)" fill="#fff"/>
    <path id="Path_21" data-name="Path 21" d="M25,0H151a25,25,0,0,1,25,25V151a25,25,0,0,1-25,25H25A25,25,0,0,1,0,151V25A25,25,0,0,1,25,0Z" transform="translate(1190 464)" fill="#8c8c8c"/>
    <rect id="Rectangle_14" data-name="Rectangle 14" width="176" height="176" rx="25" transform="translate(1542 464)" fill="#fff"/>
    <rect id="Rectangle_18" data-name="Rectangle 18" width="139" height="139" rx="25" transform="translate(1453.837 453.712) rotate(45)" fill="#1ff0ed"/>
    <rect id="Rectangle_19" data-name="Rectangle 19" width="139" height="139" rx="25" transform="translate(1277.837 629.712) rotate(45)" fill="#f0c907"/>
  </g>
</svg>
