<svg xmlns="http://www.w3.org/2000/svg" width="27" height="36" viewBox="0 0 27 36">
  <path id="Icon-hand-point-down" d="M6.457,32.85V22.357a9.554,9.554,0,0,1-1.752,1A3.377,3.377,0,0,1,0,20.25a3,3,0,0,1,2.046-2.812c1.989-.852,4.523-5.53,5.437-7.561a3.375,3.375,0,0,1,3.083-2h12.06A1.685,1.685,0,0,1,24.292,9.3C24.8,12.593,27,13.643,26.986,18c0,.192.014.932.014,1.125,0,3.562-1.555,5.736-5.011,5.1a3.221,3.221,0,0,1-4.382,1.157,3.458,3.458,0,0,1-4.988.443V32.85A3.171,3.171,0,0,1,9.538,36a3.222,3.222,0,0,1-3.082-3.15ZM7.875,5.063V1.688A1.687,1.687,0,0,1,9.563,0h13.5A1.687,1.687,0,0,1,24.75,1.688V5.063A1.687,1.687,0,0,1,23.063,6.75H9.563A1.687,1.687,0,0,1,7.875,5.063ZM22.781,3.375a1.406,1.406,0,1,0-1.406,1.406A1.406,1.406,0,0,0,22.781,3.375Z" fill="#f0c907"/>
</svg>
