<svg xmlns="http://www.w3.org/2000/svg" width="622.5" height="533.563" viewBox="0 0 622.5 533.563">
  <g id="water-mark-logo" transform="translate(-1030 -350.001)">
    <path id="Intersection_1" data-name="Intersection 1" d="M266.781,533.563C119.444,533.563,0,414.118,0,266.781c0-38.017,7.944-74.174,23.651-109.98C63.489,65.76,157.452,0,266.781,0Z" transform="translate(1652.5 883.564) rotate(180)" fill="rgba(240,201,7,0.1)"/>
    <path id="Subtraction_1" data-name="Subtraction 1" d="M352.213,533.563H0V0H355.533A267.13,267.13,0,0,0,208.087,44.26c-42.559,28.1-75.584,67.015-95.506,112.541C96.667,193.08,88.93,229.055,88.93,266.781A266.555,266.555,0,0,0,352.213,533.54Z" transform="translate(1030 350.001)" fill="rgba(240,201,7,0.1)"/>
  </g>
</svg>
