<svg xmlns="http://www.w3.org/2000/svg" width="144.98" height="96.759" viewBox="0 0 144.98 96.759">
  <g id="Group_30" data-name="Group 30" transform="translate(-1237.695 -1579.021)">
    <g id="Group_29" data-name="Group 29" transform="translate(1237.695 1684.744) rotate(-90)">
      <g id="Group_8" data-name="Group 8" transform="translate(35.512)">
        <g id="Group_5" data-name="Group 5" transform="translate(9.87 0.134)">
          <path id="Path_4" data-name="Path 4" d="M129.787,112.706c2.344,1.354,4.252,4.993,4.252,8.121,0,2.788-1.518,4.234-3.5,3.553v59.172L152.1,138.3a3.8,3.8,0,0,0,.044-2.761,138.019,138.019,0,0,1-10.835-41.364A3.29,3.29,0,0,0,139.86,91.9L119.713,80.271a.906.906,0,0,0-1.464.752c-1.352,12.6-5.209,21.951-10.437,28.242a3.093,3.093,0,0,0-.552,2.6L129.04,182.69V123.518a10.585,10.585,0,0,1-3.505-7.6C125.535,112.785,127.436,111.351,129.787,112.706Z" transform="translate(-107.168 -80.091)" fill="#27debf"/>
        </g>
        <path id="Path_5" data-name="Path 5" d="M107.261,117.424l21.778,70.829,1.489-.864v1.724l9.876-5.7,21.565-45.253a3.8,3.8,0,0,0,.044-2.761A138.019,138.019,0,0,1,151.178,94.04a3.29,3.29,0,0,0-1.448-2.272L129.583,80.136a2.907,2.907,0,0,0-2.63,0l-7.24,4.179a3.342,3.342,0,0,0-1.464,2.27c-1.352,12.605-5.209,21.958-10.437,28.243A3.091,3.091,0,0,0,107.261,117.424Z" transform="translate(-107.168 -79.821)" fill="#27debf"/>
        <path id="Path_6" data-name="Path 6" d="M163.758,159.622a10.565,10.565,0,0,0,3.5,7.6v59.172l1.489-.863V168.083c1.992.68,3.5-.759,3.5-3.548,0-3.134-1.9-6.772-4.252-8.127S163.758,156.493,163.758,159.622Z" transform="translate(-145.391 -117.961)" opacity="0.15"/>
        <g id="Group_6" data-name="Group 6" transform="translate(0 5.832)">
          <path id="Path_7" data-name="Path 7" d="M127.055,123.287l21.778,70.829V134.943a10.565,10.565,0,0,1-3.5-7.6c0-3.128,1.9-4.567,4.246-3.213s4.252,4.993,4.252,8.127c0,2.788-1.512,4.228-3.5,3.548v59.17l21.571-45.245a3.793,3.793,0,0,0,.044-2.761A138.042,138.042,0,0,1,161.1,105.6a3.287,3.287,0,0,0-1.447-2.272L139.506,91.7a.905.905,0,0,0-1.464.751c-1.352,12.605-5.209,21.958-10.437,28.243A3.091,3.091,0,0,0,127.055,123.287Z" transform="translate(-126.961 -91.516)" fill="#27debf"/>
        </g>
        <path id="Path_8" data-name="Path 8" d="M107.171,111.7a2.878,2.878,0,0,1,.407,1.16,137.88,137.88,0,0,0,10.842,41.369,3.639,3.639,0,0,1,.23,1.512l9.871-5.7a3.674,3.674,0,0,0-.231-1.518,137.9,137.9,0,0,1-10.836-41.364,2.907,2.907,0,0,0-.413-1.166Z" transform="translate(-73.442 -92.943)" fill="#fff" opacity="0.25"/>
        <path id="Path_9" data-name="Path 9" d="M130.2,86.374a.878.878,0,0,1,1.421-.541l20.148,11.631a3.018,3.018,0,0,1,1.039,1.112l9.87-5.7a3.083,3.083,0,0,0-1.033-1.106L141.5,80.136a2.923,2.923,0,0,0-2.636,0l-7.234,4.179A3.333,3.333,0,0,0,130.2,86.374Z" transform="translate(-119.079 -79.822)" opacity="0.15"/>
        <path id="Path_13" data-name="Path 13" d="M107.179,246.518l9.876-5.7,21.562-45.251a3.411,3.411,0,0,0,.28-1.245l-9.871,5.7a3.315,3.315,0,0,1-.279,1.251Z" transform="translate(-83.819 -137.227)" opacity="0.15"/>
        <path id="Path_14" data-name="Path 14" d="M163.752,175.71v59.173l1.488-.864V176.573c1.992.68,3.508-.756,3.508-3.545,0-.067,0-.128-.006-.194Z" transform="translate(-141.88 -126.452)" opacity="0.15"/>
      </g>
      <g id="Group_9" data-name="Group 9" transform="matrix(0.966, 0.259, -0.259, 0.966, 22.195, 74.811)">
        <path id="Path_16" data-name="Path 16" d="M2.085.263a4.324,4.324,0,0,1,2,2.7l75.5,40.254c.269-.753,1.048-.992,1.978-.5a4.205,4.205,0,0,1,2.085,3.336c0,1.228-.934,1.726-2.085,1.112a4.321,4.321,0,0,1-2.025-2.794L4.087,4.146c-.244.809-1.043,1.076-2,.565A4.2,4.2,0,0,1,0,1.375C0,.147.934-.351,2.085.263Z" transform="translate(0.966 0.181)" stroke="#000" stroke-width="3"/>
        <circle id="Ellipse_2" data-name="Ellipse 2" cx="2.738" cy="2.738" r="2.738" transform="translate(80.107 42.335)" stroke="#000" stroke-width="3"/>
        <path id="Path_18" data-name="Path 18" d="M0,2.738A2.738,2.738,0,1,0,2.738,0,2.738,2.738,0,0,0,0,2.738Z" transform="translate(0 0)" stroke="#000" stroke-width="3"/>
      </g>
    </g>
  </g>
</svg>
