<svg xmlns="http://www.w3.org/2000/svg" width="35.269" height="30.23" viewBox="0 0 35.269 30.23">
  <g id="dicksonyellow-icon" transform="translate(-1030 -350.001)">
    <path id="Intersection_1" data-name="Intersection 1" d="M15.115,30.23A15.115,15.115,0,0,1,0,15.115,15.274,15.274,0,0,1,1.34,8.884,15.051,15.051,0,0,1,15.115,0Z" transform="translate(1065.269 380.231) rotate(180)" fill="#f0c907"/>
    <path id="Subtraction_1" data-name="Subtraction 1" d="M19.955,30.23H0V0H20.143a15.135,15.135,0,0,0-8.354,2.508A14.721,14.721,0,0,0,6.378,8.884a15.232,15.232,0,0,0-1.34,6.231A15.1,15.1,0,0,0,19.955,30.229Z" transform="translate(1030 350.001)" fill="#f0c907"/>
  </g>
</svg>
